<svg width="795" height="233" viewBox="0 0 795 233" fill="none" xmlns="http://www.w3.org/2000/svg">
<g filter="url(#filter0_d_2_128)">
<line y1="-10" x2="83.8553" y2="-10" transform="matrix(-0.487104 0.873344 -0.875044 -0.484043 135.529 134)" stroke="white" stroke-width="20"/>
<ellipse cx="55.0127" cy="213" rx="7.84742" ry="10" fill="white"/>
<ellipse cx="163.83" cy="213" rx="7.84742" ry="10" fill="white"/>
<line x1="55.1983" y1="213" x2="161.923" y2="213" stroke="white" stroke-width="20"/>
<path d="M18.761 17.5H212.426C212.631 17.5 212.816 17.6254 212.891 17.8163L265.816 151.816C265.863 151.936 265.861 152.006 265.855 152.053C265.848 152.115 265.821 152.197 265.764 152.281C265.707 152.365 265.64 152.42 265.585 152.45C265.544 152.473 265.479 152.5 265.351 152.5H71.6855C71.4803 152.5 71.2959 152.375 71.2205 152.184L18.296 18.1837C18.2487 18.064 18.2503 17.994 18.2561 17.9473C18.264 17.8848 18.2905 17.8027 18.3476 17.7188C18.4047 17.6348 18.4713 17.58 18.5265 17.5498C18.5678 17.5272 18.6324 17.5 18.761 17.5Z" fill="white" stroke="white" stroke-width="15"/>
<ellipse cx="211.341" cy="18.5" rx="7.53099" ry="7.5" fill="#050505"/>
<ellipse cx="263.556" cy="151.5" rx="7.53099" ry="7.5" fill="#050505"/>
<line y1="-7.5" x2="226.725" y2="-7.5" transform="matrix(-0.487174 0.873305 -0.875005 -0.484114 204.814 15)" stroke="#050505" stroke-width="15"/>
<line y1="-7.5" x2="145.48" y2="-7.5" transform="matrix(0.367811 0.9299 -0.930931 0.365194 203.81 20.8589)" stroke="#050505" stroke-width="15"/>
<ellipse cx="57.7087" cy="212.5" rx="7.53099" ry="7.5" fill="#050505"/>
<ellipse cx="162.138" cy="212.5" rx="7.53099" ry="7.5" fill="#050505"/>
<line x1="59.2149" y1="212.5" x2="161.636" y2="212.5" stroke="#050505" stroke-width="15"/>
<ellipse cx="119.965" cy="92.5" rx="7.53099" ry="7.5" fill="#050505"/>
<line x1="120.754" y1="92.5" x2="237.807" y2="92.5" stroke="#050505" stroke-width="15"/>
<g filter="url(#filter1_d_2_128)">
<line y1="-5" x2="222.96" y2="-5" transform="matrix(-0.487867 0.872918 -0.874622 -0.484805 206.822 17)" stroke="#F7672C" stroke-width="10"/>
<ellipse cx="211.341" cy="19" rx="5.02066" ry="5" fill="#F7672C"/>
<ellipse cx="60.3414" cy="212.5" rx="7.15128" ry="5" fill="#F7672C"/>
<ellipse cx="159.506" cy="212.5" rx="7.15128" ry="5" fill="#F7672C"/>
<line x1="61.7716" y1="212.5" x2="159.029" y2="212.5" stroke="#F7672C" stroke-width="10"/>
<line y1="-5" x2="142.883" y2="-5" transform="matrix(0.367811 0.929901 -0.930931 0.365195 206.822 21.0663)" stroke="#F7672C" stroke-width="10"/>
<ellipse cx="263.757" cy="151.5" rx="5.02066" ry="5" fill="#F7672C"/>
<ellipse cx="120.787" cy="92.5" rx="5.34061" ry="5" fill="#F7672C"/>
<line x1="121.855" y1="92.5" x2="239.959" y2="92.5" stroke="#F7672C" stroke-width="10"/>
</g>
<ellipse cx="298.198" cy="212" rx="10" ry="10.0413" transform="rotate(-90 298.198 212)" fill="white"/>
<mask id="path-25-inside-1_2_128" fill="white">
<ellipse cx="298.198" cy="21" rx="10" ry="10.0413" transform="rotate(-90 298.198 21)"/>
</mask>
<ellipse cx="298.198" cy="21" rx="10" ry="10.0413" transform="rotate(-90 298.198 21)" fill="white"/>
<path d="M298.198 31C292.776 31 288.24 26.6005 288.24 21H328.24C328.24 4.35378 314.712 -9 298.198 -9V31ZM288.24 21C288.24 15.3995 292.776 11 298.198 11V51C314.712 51 328.24 37.6462 328.24 21H288.24ZM298.198 11C303.621 11 308.157 15.3995 308.157 21H268.157C268.157 37.6462 281.685 51 298.198 51V11ZM308.157 21C308.157 26.6005 303.621 31 298.198 31V-9C281.685 -9 268.157 4.35378 268.157 21H308.157Z" fill="white" mask="url(#path-25-inside-1_2_128)"/>
<line x1="298.24" y1="213" x2="298.24" y2="21" stroke="white" stroke-width="20"/>
<ellipse cx="298.198" cy="212.5" rx="7.5" ry="7.53099" transform="rotate(-90 298.198 212.5)" fill="#050505"/>
<ellipse cx="298.198" cy="20.5" rx="7.5" ry="7.53099" transform="rotate(-90 298.198 20.5)" fill="#050505"/>
<line x1="298.229" y1="211" x2="298.229" y2="19" stroke="#050505" stroke-width="15"/>
<ellipse cx="298.198" cy="212.5" rx="5" ry="5.02066" transform="rotate(-90 298.198 212.5)" fill="white"/>
<ellipse cx="298.198" cy="20" rx="5" ry="5.02066" transform="rotate(-90 298.198 20)" fill="white"/>
<line x1="298.219" y1="212" x2="298.219" y2="20" stroke="white" stroke-width="10"/>
<path d="M340.11 103C338.01 103 336.36 102.73 335.16 102.19C334.02 101.65 333.21 100.6 332.73 99.04C332.25 97.48 332.01 95.2 332.01 92.2V43.6H340.11V92.2C340.11 94.9 340.47 97.09 341.19 98.77C341.97 100.39 343.71 101.2 346.41 101.2H348.21V103H340.11ZM407.714 103.9C405.674 103.9 403.784 103.51 402.044 102.73C400.364 101.89 398.684 100.54 397.004 98.68C395.384 96.76 393.584 94.15 391.604 90.85L382.604 75.55H376.304V103H368.204V54.4C368.204 51.7 367.814 49.54 367.034 47.92C366.314 46.24 364.604 45.4 361.904 45.4H360.104V43.6H383.504C385.004 43.6 386.744 43.72 388.724 43.96C390.704 44.14 392.684 44.53 394.664 45.13C396.704 45.73 398.564 46.63 400.244 47.83C401.984 49.03 403.364 50.59 404.384 52.51C405.464 54.43 406.004 56.83 406.004 59.71C406.004 63.13 405.254 65.89 403.754 67.99C402.314 70.03 400.484 71.59 398.264 72.67C396.044 73.75 393.824 74.56 391.604 75.1L401.054 90.85C403.334 94.69 405.374 97.33 407.174 98.77C408.974 100.15 410.984 100.96 413.204 101.2V103C412.724 103.24 411.974 103.45 410.954 103.63C409.994 103.81 408.914 103.9 407.714 103.9ZM376.304 72.4H382.784C384.104 72.4 385.574 72.16 387.194 71.68C388.814 71.2 390.374 70.48 391.874 69.52C393.374 68.5 394.604 67.18 395.564 65.56C396.524 63.94 397.004 61.96 397.004 59.62C397.004 57.28 396.524 55.3 395.564 53.68C394.604 52.06 393.374 50.74 391.874 49.72C390.374 48.7 388.814 47.95 387.194 47.47C385.574 46.99 384.104 46.75 382.784 46.75C381.824 46.75 380.714 46.84 379.454 47.02C378.254 47.2 377.204 47.41 376.304 47.65V72.4ZM437.299 103C435.199 103 433.549 102.73 432.349 102.19C431.209 101.65 430.399 100.6 429.919 99.04C429.439 97.48 429.199 95.2 429.199 92.2V43.6H437.299V92.2C437.299 94.9 437.659 97.09 438.379 98.77C439.159 100.39 440.899 101.2 443.599 101.2H445.399V103H437.299ZM508.054 103.9L469.354 55.75V103H465.754V54.4C465.754 51.7 465.184 49.54 464.044 47.92C462.904 46.24 460.774 45.4 457.654 45.4H456.754V43.6H462.604C465.544 43.6 467.944 44.08 469.804 45.04C471.724 46 473.374 47.32 474.754 49L506.254 88.15V43.6H509.854V103.9H508.054ZM581.918 103.45C580.598 103.45 578.978 103.21 577.058 102.73C575.138 102.19 573.248 101.11 571.387 99.49C569.528 97.81 567.938 95.23 566.618 91.75L564.368 85.9H539.167L531.968 103H527.918L553.118 43.6H555.818L575.618 91.75C577.058 95.11 578.438 97.48 579.758 98.86C581.078 100.18 582.998 100.96 585.518 101.2V103C585.038 103.12 584.468 103.21 583.808 103.27C583.208 103.39 582.578 103.45 581.918 103.45ZM540.518 82.3H562.568L551.768 56.2L540.518 82.3ZM379.98 193.45C378.66 193.45 377.04 193.21 375.12 192.73C373.2 192.19 371.31 191.11 369.45 189.49C367.59 187.81 366 185.23 364.68 181.75L362.43 175.9H337.23L330.03 193H325.98L351.18 133.6H353.88L373.68 181.75C375.12 185.11 376.5 187.48 377.82 188.86C379.14 190.18 381.06 190.96 383.58 191.2V193C383.1 193.12 382.53 193.21 381.87 193.27C381.27 193.39 380.64 193.45 379.98 193.45ZM338.58 172.3H360.63L349.83 146.2L338.58 172.3ZM392.289 193V191.2L429.639 137.2H408.039C404.439 137.2 401.649 138.04 399.669 139.72C397.749 141.34 396.789 143.95 396.789 147.55H394.989V140.8C394.989 139.6 395.199 138.46 395.619 137.38C396.039 136.24 396.789 135.34 397.869 134.68C399.009 133.96 400.599 133.6 402.639 133.6H441.789L403.539 189.4H440.439V193H392.289ZM468.413 193C466.313 193 464.663 192.73 463.463 192.19C462.323 191.65 461.513 190.6 461.033 189.04C460.553 187.48 460.313 185.2 460.313 182.2V133.6H468.413V182.2C468.413 184.9 468.773 187.09 469.493 188.77C470.273 190.39 472.013 191.2 474.713 191.2H476.513V193H468.413ZM489.127 193V191.2L526.477 137.2H504.877C501.277 137.2 498.487 138.04 496.507 139.72C494.587 141.34 493.627 143.95 493.627 147.55H491.827V140.8C491.827 139.6 492.037 138.46 492.457 137.38C492.877 136.24 493.627 135.34 494.707 134.68C495.847 133.96 497.437 133.6 499.477 133.6H538.627L500.377 189.4H537.277V193H489.127ZM579.599 194.8C573.899 194.8 568.949 193.42 564.749 190.66C560.609 187.84 557.399 184.06 555.119 179.32C552.839 174.52 551.699 169.18 551.699 163.3C551.699 157.42 552.839 152.11 555.119 147.37C557.399 142.57 560.609 138.79 564.749 136.03C568.949 133.21 573.899 131.8 579.599 131.8C585.299 131.8 590.219 133.21 594.359 136.03C598.559 138.79 601.799 142.57 604.079 147.37C606.359 152.11 607.499 157.42 607.499 163.3C607.499 169.18 606.359 174.52 604.079 179.32C601.799 184.06 598.559 187.84 594.359 190.66C590.219 193.42 585.299 194.8 579.599 194.8ZM579.599 191.2C583.559 191.2 586.949 190.06 589.769 187.78C592.589 185.5 594.749 182.29 596.249 178.15C597.749 173.95 598.499 169 598.499 163.3C598.499 157.6 597.749 152.68 596.249 148.54C594.749 144.34 592.589 141.1 589.769 138.82C586.949 136.54 583.559 135.4 579.599 135.4C575.699 135.4 572.309 136.54 569.429 138.82C566.609 141.1 564.449 144.34 562.949 148.54C561.449 152.68 560.699 157.6 560.699 163.3C560.699 169 561.449 173.95 562.949 178.15C564.449 182.29 566.609 185.5 569.429 187.78C572.309 190.06 575.699 191.2 579.599 191.2ZM647.307 193.9L626.427 144.13C624.987 140.77 623.607 138.43 622.287 137.11C620.967 135.73 619.047 134.92 616.527 134.68V132.88C616.767 132.88 617.247 132.85 617.967 132.79C618.627 132.73 619.167 132.7 619.587 132.7C621.087 132.7 622.767 132.94 624.627 133.42C626.487 133.9 628.347 134.95 630.207 136.57C632.127 138.19 633.807 140.71 635.247 144.13L650.637 180.4L670.437 133.6H674.757L648.927 193.9H647.307ZM734.126 193.45C732.806 193.45 731.186 193.21 729.266 192.73C727.346 192.19 725.456 191.11 723.596 189.49C721.736 187.81 720.146 185.23 718.826 181.75L716.576 175.9H691.376L684.176 193H680.126L705.326 133.6H708.026L727.826 181.75C729.266 185.11 730.646 187.48 731.966 188.86C733.286 190.18 735.206 190.96 737.726 191.2V193C737.246 193.12 736.676 193.21 736.016 193.27C735.416 193.39 734.786 193.45 734.126 193.45ZM692.726 172.3H714.776L703.976 146.2L692.726 172.3Z" fill="#0BD7F7"/>
</g>
<defs>
<filter id="filter0_d_2_128" x="0.753296" y="0" width="746.973" height="233" filterUnits="userSpaceOnUse" color-interpolation-filters="sRGB">
<feFlood flood-opacity="0" result="BackgroundImageFix"/>
<feColorMatrix in="SourceAlpha" type="matrix" values="0 0 0 0 0 0 0 0 0 0 0 0 0 0 0 0 0 0 127 0" result="hardAlpha"/>
<feOffset/>
<feGaussianBlur stdDeviation="5"/>
<feComposite in2="hardAlpha" operator="out"/>
<feColorMatrix type="matrix" values="0 0 0 0 0.968627 0 0 0 0 0.403922 0 0 0 0 0.172549 0 0 0 1 0"/>
<feBlend mode="normal" in2="BackgroundImageFix" result="effect1_dropShadow_2_128"/>
<feBlend mode="normal" in="SourceGraphic" in2="effect1_dropShadow_2_128" result="shape"/>
</filter>
<filter id="filter1_d_2_128" x="49.1901" y="14" width="223.587" height="211.5" filterUnits="userSpaceOnUse" color-interpolation-filters="sRGB">
<feFlood flood-opacity="0" result="BackgroundImageFix"/>
<feColorMatrix in="SourceAlpha" type="matrix" values="0 0 0 0 0 0 0 0 0 0 0 0 0 0 0 0 0 0 127 0" result="hardAlpha"/>
<feOffset dy="4"/>
<feGaussianBlur stdDeviation="2"/>
<feComposite in2="hardAlpha" operator="out"/>
<feColorMatrix type="matrix" values="0 0 0 0 0 0 0 0 0 0 0 0 0 0 0 0 0 0 0.25 0"/>
<feBlend mode="normal" in2="BackgroundImageFix" result="effect1_dropShadow_2_128"/>
<feBlend mode="normal" in="SourceGraphic" in2="effect1_dropShadow_2_128" result="shape"/>
</filter>
</defs>
</svg>
